<svg width="36" height="36" viewBox="0 0 36 36" fill="none" xmlns="http://www.w3.org/2000/svg">
<rect width="36" height="36" rx="18" fill="white"/>
<g clip-path="url(#clip0_163_5)">
<path d="M24.0001 16H22.7401C22.366 14.551 21.5929 13.236 20.5088 12.2044C19.4246 11.1728 18.0728 10.466 16.607 10.1643C15.1412 9.86256 13.6202 9.97804 12.2168 10.4976C10.8133 11.0171 9.58375 11.9199 8.66776 13.1034C7.75177 14.2868 7.1861 15.7035 7.03502 17.1924C6.88393 18.6812 7.1535 20.1826 7.81309 21.526C8.47267 22.8693 9.49583 24.0007 10.7663 24.7916C12.0368 25.5824 13.5036 26.0011 15.0001 26H24.0001C25.3262 26 26.598 25.4732 27.5356 24.5355C28.4733 23.5979 29.0001 22.3261 29.0001 21C29.0001 19.6739 28.4733 18.4021 27.5356 17.4645C26.598 16.5268 25.3262 16 24.0001 16Z" stroke="black" stroke-width="2" stroke-linecap="round" stroke-linejoin="round"/>
</g>
<defs>
<clipPath id="clip0_163_5">
<rect width="24" height="24" fill="white" transform="translate(6 6)"/>
</clipPath>
</defs>
</svg>
